<svg version="1.1" id="Layer_1" xmlns="http://www.w3.org/2000/svg" xmlns:xlink="http://www.w3.org/1999/xlink" x="0px" y="0px"
	 width="1920px" height="184.439px" viewBox="0 0 1920 184.439" enable-background="new 0 0 1920 184.439" xml:space="preserve">
<path opacity="0.7" fill="#0C2556" d="M1920,13.439c0,0-156,13-196,50s-79,68-129,68s-264-94-338-96s-70,86-106,87
	s-131.25-84.921-209-78C751.655,61.382,727.606-0.988,646.606,0.012S573.28,137.839,532,111.439
	c-44.145-28.231-132.878-75.429-198.878-75.429S186,62.439,126,62.439s-126,23-126,23v99h1920V13.439z"/>
<path fill="#051844" d="M0,13.439c0,0,156,13,196,50s79,68,129,68s264-94,338-96s70,86,106,87s50.343-115.921,128.094-109
	c190.345,16.942,273.906,153,354.906,154s87-56,136-56s116,46,182,46s164-95,224-95s126,23,126,23v99H0V13.439z"/>
</svg>
